<?xml version="1.0" encoding="utf-8"?>
<!-- Generator: Adobe Illustrator 22.1.0, SVG Export Plug-In . SVG Version: 6.00 Build 0)  -->
<svg version="1.1" id="Layer_1" xmlns="http://www.w3.org/2000/svg" xmlns:xlink="http://www.w3.org/1999/xlink" x="0px" y="0px"
	 viewBox="0 0 140.3 57.5" style="enable-background:new 0 0 140.3 57.5;" xml:space="preserve">
<style type="text/css">
	.st0{fill:#7DC796;}
	.st1{fill:#230D36;}
</style>
<image style="overflow:visible;" width="4654" height="2540" xlink:href="../../../Desktop/Screen Shot 2018-06-25 at 12.57.45.png"  transform="matrix(0.1374 0 0 0.1374 18.4761 -400)">
</image>
<g>
	<polygon class="st0" points="24.3,15.1 22,24.9 19.1,15.1 13.8,15.1 14.8,18.5 12.8,25.3 10.5,15.1 2.8,15.1 8.5,34.8 15.2,34.8 
		17.4,27.3 19.5,34.8 26.2,34.8 32,15.1 	"/>
	<path class="st0" d="M39.9,27.4c0.6,0.6,1.4,1,2.4,1c1,0,1.8-0.3,2.4-1c0.6-0.6,0.9-1.5,0.9-2.5c0-1-0.3-1.9-0.9-2.5
		c-0.6-0.6-1.4-1-2.4-1c-1,0-1.8,0.3-2.4,1c-0.6,0.6-0.9,1.5-0.9,2.5C39,26,39.3,26.8,39.9,27.4 M49.8,32.3c-2.1,2-4.6,3-7.5,3
		c-2.9,0-5.5-1-7.5-3s-3.1-4.5-3.1-7.4c0-2.9,1-5.4,3.1-7.4c2-2,4.6-3,7.5-3c3,0,5.5,1,7.5,3c2.1,2,3.1,4.5,3.1,7.4
		C52.9,27.9,51.8,30.3,49.8,32.3"/>
	<path class="st0" d="M67.3,14.7v7.9c-1.4-0.2-2.6,0-3.6,0.7c-1,0.7-1.5,1.8-1.5,3.4v8.1h-7.3V15.1h7.3v3.1c0.3-1.1,0.9-2,1.9-2.6
		C65,15,66.1,14.7,67.3,14.7"/>
	<rect x="69.8" y="7.2" class="st0" width="7.3" height="27.6"/>
	<polygon class="st0" points="77.7,24.9 83.2,15.1 91.3,15.1 85.3,24.9 91.7,34.8 83.6,34.8 	"/>
	<polygon class="st0" points="124,15.1 129.9,24.9 123.6,34.8 131.6,34.8 137.5,24.9 132,15.1 	"/>
	<rect x="93.4" y="15.1" class="st0" width="7.3" height="19.7"/>
	<path class="st0" d="M115.7,14.5c1.9,0,3.4,0.7,4.6,2c1.2,1.4,1.7,3.2,1.7,5.7v12.6h-7.3V23.2c0-1.1-0.6-1.7-1.7-1.7
		c-1.3,0-1.9,0.7-1.9,2.1v11.1h-7.3V15.1h7.3v1.5C112.3,15.2,113.8,14.5,115.7,14.5"/>
	<path class="st0" d="M99.7,12.3c-0.7,0.7-1.5,1-2.5,1c-1,0-1.8-0.3-2.5-1c-0.7-0.7-1-1.5-1-2.5c0-1,0.3-1.8,1-2.5
		c0.7-0.7,1.5-1,2.5-1c1,0,1.9,0.3,2.5,1c0.7,0.7,1,1.5,1,2.5C100.7,10.8,100.4,11.7,99.7,12.3"/>
	<path class="st0" d="M117.5,46.1l-0.3,0.5v2.7h1.2v-3.2H117.5z M117.2,44.7h2.6c0.7,0,1,0.2,1,0.8v3.8h1.2v-3.7
		c0-1.4-0.8-1.8-2.6-1.8c-0.4,0-1.4,0.1-2.2,0.2V44.7z M110.6,44.7h1l-0.4,0.7l-0.4,3.9h1.2l0.4-4.6h1c0.7,0,1.1,0.2,1.1,0.9v2.8
		h-1.2v0.9h2.2l0.3-0.7v-2.9c0-1.5-1.1-1.9-2.4-1.9c-0.9,0-2.1,0.1-2.7,0.2V44.7z M105.4,44.7h1.9c0.7,0,1.1,0.2,1.1,0.7v3.8h1.2
		v-3.7c0-1.4-0.8-1.8-2.3-1.8c-0.6,0-1.4,0.1-1.9,0.2V44.7z M100.1,44.7h2c0.7,0,1,0.3,1,0.8v2.1c0,0.5-0.2,0.8-1,0.8h-2v0.8
		c0.6,0.1,1.4,0.2,2.1,0.2c1.3,0,2.1-0.3,2.1-1.8v-2c0-1.5-0.9-1.8-2.2-1.8c-0.7,0-1.6,0.1-2,0.2V44.7z M96.2,43.7v0.9h1.2l-0.3,0.5
		l0.5,4.1h1.2l-0.5-4.5l1-0.1v-0.9H96.2z M88.7,42v2.7H92l-2.1,4.6h1.2l2.3-4.9l-0.2-0.6h-3.3V42H88.7z M83.3,42v2.7h3.3l-2.1,4.6
		h1.2l2.3-4.9l-0.2-0.6h-3.3V42H83.3z M80.3,43.7v0.9h0.8V47l1.2-0.2v-3.1H80.3z M74.3,44.7h1l-0.4,0.7l-0.4,3.9h1.2l0.4-4.6h1
		c0.7,0,1.1,0.2,1.1,0.9v2.8H77v0.9h2.2l0.3-0.7v-2.9c0-1.5-1.1-1.9-2.4-1.9c-0.9,0-2.1,0.1-2.7,0.2V44.7z M71.2,43.7v0.9h0.7v4.6
		h1.2v-5.5H71.2z M65.7,43.7v0.9h2.9l-0.3,0.5v4.1h1.2v-4.5l0.9-0.1v-0.9H65.7z M62.7,43.7v0.9h0.8V47l1.2-0.2v-3.1H62.7z
		 M54.4,43.7v0.9h0.8l-0.4,0.6v6H56v-6.6h2.7l-2,4.6h1.2l2.2-4.8l-0.2-0.7H54.4z M51.4,43.7v0.9h0.7v4.6h1.2v-5.5H51.4z M46,43.7
		v0.9h2.9l-0.3,0.5v4.1h1.2v-4.5l0.9-0.1v-0.9H46z M40.9,43.7v0.9h0.7v4.6h1.2v-5.5H40.9z M38.8,47.2c0,0.6-0.4,1.2-1.2,1.2
		c-0.8,0-1.1-0.6-1.2-1.2c-0.1-0.8-0.1-1.7,0.1-2.5h1.2c0.8,0,1.1,0.2,1.1,0.7V47.2z M34.8,44.7h0.8l-0.4,0.5
		c-0.1,0.7-0.2,1.3-0.1,2.1c0.1,0.8,0.5,2.1,2.4,2.1c1.8,0,2.4-1.3,2.4-2.1v-1.6c0-1.5-0.9-1.9-2.5-1.9c-0.7,0-1.9,0.1-2.7,0.2V44.7
		z M31.7,43.7v0.9h0.8V47l1.2-0.2v-3.1H31.7z M28.7,43.7v0.9h0.8V47l1.2-0.2v-3.1H28.7z M23.7,44.7h1.7c0.9,0,1.2,0.2,1.2,0.8V48
		l0.3,0.3h-3.1v0.9h4.7v-0.9h-0.6v-2.8c0-1.4-0.7-1.8-2.2-1.8c-0.5,0-1.3,0.1-1.9,0.2V44.7z M18.4,44.7h1.9c0.7,0,1.1,0.2,1.1,0.7
		v3.8h1.2v-3.7c0-1.4-0.8-1.8-2.3-1.8c-0.6,0-1.4,0.1-1.9,0.2V44.7z"/>
</g>
<rect x="174.2" y="-399" class="st1" width="74.5" height="22"/>
<g>
	<polygon class="st0" points="325.3,-391.6 324.7,-388.9 323.9,-391.6 322.4,-391.6 322.7,-390.7 322.1,-388.8 321.5,-391.6 
		319.3,-391.6 320.9,-386.1 322.8,-386.1 323.4,-388.2 324,-386.1 325.9,-386.1 327.5,-391.6 	"/>
	<path class="st0" d="M329.7-388.2c0.2,0.2,0.4,0.3,0.7,0.3s0.5-0.1,0.7-0.3c0.2-0.2,0.3-0.4,0.3-0.7c0-0.3-0.1-0.5-0.3-0.7
		c-0.2-0.2-0.4-0.3-0.7-0.3s-0.5,0.1-0.7,0.3c-0.2,0.2-0.3,0.4-0.3,0.7C329.5-388.6,329.5-388.3,329.7-388.2 M332.5-386.8
		c-0.6,0.6-1.3,0.8-2.1,0.8c-0.8,0-1.5-0.3-2.1-0.8c-0.6-0.6-0.9-1.3-0.9-2.1c0-0.8,0.3-1.5,0.9-2.1c0.6-0.6,1.3-0.8,2.1-0.8
		c0.8,0,1.5,0.3,2.1,0.8c0.6,0.6,0.9,1.3,0.9,2.1C333.4-388,333.1-387.4,332.5-386.8"/>
	<path class="st0" d="M337.4-391.7v2.2c-0.4-0.1-0.7,0-1,0.2c-0.3,0.2-0.4,0.5-0.4,1v2.3h-2v-5.5h2v0.9c0.1-0.3,0.3-0.6,0.5-0.7
		C336.8-391.7,337.1-391.7,337.4-391.7"/>
	<rect x="338.1" y="-393.8" class="st0" width="2" height="7.7"/>
	<polygon class="st0" points="340.3,-388.9 341.9,-391.6 344.1,-391.6 342.5,-388.9 344.2,-386.1 342,-386.1 	"/>
	<polygon class="st0" points="353.3,-391.6 355,-388.9 353.2,-386.1 355.4,-386.1 357.1,-388.9 355.5,-391.6 	"/>
	<rect x="344.7" y="-391.6" class="st0" width="2" height="5.5"/>
	<path class="st0" d="M351-391.8c0.5,0,1,0.2,1.3,0.6c0.3,0.4,0.5,0.9,0.5,1.6v3.5h-2v-3.2c0-0.3-0.2-0.5-0.5-0.5
		c-0.4,0-0.5,0.2-0.5,0.6v3.1h-2v-5.5h2v0.4C350-391.6,350.4-391.8,351-391.8"/>
	<path class="st0" d="M346.5-392.4c-0.2,0.2-0.4,0.3-0.7,0.3s-0.5-0.1-0.7-0.3c-0.2-0.2-0.3-0.4-0.3-0.7c0-0.3,0.1-0.5,0.3-0.7
		c0.2-0.2,0.4-0.3,0.7-0.3s0.5,0.1,0.7,0.3c0.2,0.2,0.3,0.4,0.3,0.7C346.8-392.8,346.7-392.6,346.5-392.4"/>
	<path class="st0" d="M351.5-382.9l-0.1,0.1v0.8h0.3v-0.9H351.5z M351.4-383.3h0.7c0.2,0,0.3,0.1,0.3,0.2v1.1h0.3v-1
		c0-0.4-0.2-0.5-0.7-0.5c-0.1,0-0.4,0-0.6,0.1V-383.3z M349.5-383.3h0.3l-0.1,0.2l-0.1,1.1h0.3l0.1-1.3h0.3c0.2,0,0.3,0.1,0.3,0.2
		v0.8h-0.3v0.3h0.6l0.1-0.2v-0.8c0-0.4-0.3-0.5-0.7-0.5c-0.2,0-0.6,0-0.8,0.1V-383.3z M348.1-383.3h0.5c0.2,0,0.3,0,0.3,0.2v1.1h0.3
		v-1c0-0.4-0.2-0.5-0.6-0.5c-0.2,0-0.4,0-0.5,0.1V-383.3z M346.6-383.3h0.6c0.2,0,0.3,0.1,0.3,0.2v0.6c0,0.1-0.1,0.2-0.3,0.2h-0.6
		v0.2c0.2,0,0.4,0,0.6,0c0.4,0,0.6-0.1,0.6-0.5v-0.6c0-0.4-0.2-0.5-0.6-0.5c-0.2,0-0.4,0-0.6,0.1V-383.3z M345.5-383.6v0.3h0.3
		l-0.1,0.1l0.1,1.1h0.3l-0.2-1.3l0.3,0v-0.2H345.5z M343.4-384.1v0.8h0.9l-0.6,1.3h0.3l0.6-1.4l-0.1-0.2h-0.9v-0.5H343.4z
		 M341.9-384.1v0.8h0.9l-0.6,1.3h0.3l0.6-1.4l-0.1-0.2h-0.9v-0.5H341.9z M341-383.6v0.3h0.2v0.7l0.3,0v-0.9H341z M339.4-383.3h0.3
		l-0.1,0.2l-0.1,1.1h0.3l0.1-1.3h0.3c0.2,0,0.3,0.1,0.3,0.2v0.8h-0.3v0.3h0.6l0.1-0.2v-0.8c0-0.4-0.3-0.5-0.7-0.5
		c-0.2,0-0.6,0-0.8,0.1V-383.3z M338.5-383.6v0.3h0.2v1.3h0.3v-1.5H338.5z M337-383.6v0.3h0.8l-0.1,0.1v1.2h0.3v-1.3l0.3,0v-0.2H337
		z M336.1-383.6v0.3h0.2v0.7l0.3,0v-0.9H336.1z M333.8-383.6v0.3h0.2l-0.1,0.2v1.7h0.3v-1.8h0.8l-0.6,1.3h0.3l0.6-1.4l-0.1-0.2
		H333.8z M333-383.6v0.3h0.2v1.3h0.3v-1.5H333z M331.4-383.6v0.3h0.8l-0.1,0.1v1.2h0.3v-1.3l0.3,0v-0.2H331.4z M330-383.6v0.3h0.2
		v1.3h0.3v-1.5H330z M329.4-382.6c0,0.2-0.1,0.3-0.3,0.3c-0.2,0-0.3-0.2-0.3-0.3c0-0.2,0-0.5,0-0.7h0.3c0.2,0,0.3,0,0.3,0.2V-382.6z
		 M328.3-383.3h0.2l-0.1,0.1c0,0.2,0,0.4,0,0.6c0,0.2,0.1,0.6,0.7,0.6c0.5,0,0.7-0.4,0.7-0.6v-0.5c0-0.4-0.3-0.5-0.7-0.5
		c-0.2,0-0.5,0-0.8,0.1V-383.3z M327.4-383.6v0.3h0.2v0.7l0.3,0v-0.9H327.4z M326.6-383.6v0.3h0.2v0.7l0.3,0v-0.9H326.6z
		 M325.2-383.3h0.5c0.3,0,0.3,0.1,0.3,0.2v0.7l0.1,0.1h-0.9v0.3h1.3v-0.3h-0.2v-0.8c0-0.4-0.2-0.5-0.6-0.5c-0.2,0-0.4,0-0.5,0.1
		V-383.3z M323.7-383.3h0.5c0.2,0,0.3,0,0.3,0.2v1.1h0.3v-1c0-0.4-0.2-0.5-0.6-0.5c-0.2,0-0.4,0-0.5,0.1V-383.3z"/>
</g>
</svg>
