<?xml version="1.0" encoding="iso-8859-1"?>
<!-- Generator: Adobe Illustrator 19.0.0, SVG Export Plug-In . SVG Version: 6.00 Build 0)  -->
<svg version="1.1" id="Layer_1" xmlns="http://www.w3.org/2000/svg" xmlns:xlink="http://www.w3.org/1999/xlink" x="0px" y="0px"
	 viewBox="0 0 512 512" style="enable-background:new 0 0 512 512;" xml:space="preserve">
<path style="fill:#CCCCCC;" d="M237.752,30.628l18.147,27.062h-0.013c-12.338,5.336-25.502,47.227-38.666,47.227
	c-13.178,0-26.341-41.89-38.678-47.227l18.147-27.062c5.874,3.96,12.928-8.969,20.533-8.969
	C224.824,21.661,231.891,34.575,237.752,30.628z"/>
<g>
	<path style="fill:#F7B239;" d="M255.897,57.691v200.368h-38.678V65.688c2.19,0,4.379-0.079,6.556-0.223
		c10.961-0.734,21.818-3.33,32.11-7.776h0.013V57.691z"/>
	<path style="fill:#F7B239;" d="M217.219,65.688v192.371h-38.678V57.691c10.293,4.445,21.162,7.041,32.123,7.776
		C212.853,65.61,215.029,65.688,217.219,65.688z"/>
</g>
<path style="fill:#E09B2D;" d="M223.775,65.465v192.594h-13.111V65.465c2.19,0.145,4.366,0.223,6.556,0.223
	C219.41,65.688,221.598,65.61,223.775,65.465z"/>
<path style="fill:#F95428;" d="M217.219,0l20.533,30.628c-5.861,3.947-12.928,6.254-20.533,6.254
	c-7.604,0-14.659-2.294-20.533-6.254L217.219,0z"/>
<g>
	<path style="fill:#2BA5F7;" d="M412.002,69.723c-0.551,0-1.113-0.09-1.664-0.277c-2.702-0.919-4.147-3.854-3.229-6.556l0.001-0.003
		l9.468-27.851c0.918-2.701,3.852-4.151,6.556-3.229c2.703,0.919,4.148,3.854,3.23,6.556l-3.39,9.971
		c-0.018,0.062-0.038,0.123-0.059,0.184l-6.021,17.701C416.162,68.368,414.154,69.723,412.002,69.723z"/>
	<path style="fill:#2BA5F7;" d="M323.305,168.822l0.011,0.413h-21.762l-102.836-0.413H157.94v301.895
		c0,22.795,18.489,41.284,41.284,41.284h181.557c22.807,0,41.295-18.489,41.295-41.284V168.822H323.305z"/>
</g>
<path style="fill:#2197D8;" d="M159.663,402.744v32.143h-41.915c-25.827,0-46.773-20.946-46.773-46.773V261.862
	c0-25.827,20.946-46.762,46.773-46.762h41.915v32.131h-38.815c-9.796,0-17.731,7.935-17.731,17.731v120.05
	c0,9.796,7.935,17.731,17.731,17.731H159.663z"/>
<path style="fill:#CCCCCC;" d="M321.433,35.393l1.872,133.429h-21.75h-7.51l1.872-133.429c0.103-6.971,5.788-12.575,12.758-12.575
	C315.646,22.818,321.33,28.422,321.433,35.393z"/>
<g>
	<polygon style="fill:#F95428;" points="417.816,130.455 404.782,168.822 348.386,168.822 367.253,113.287 	"/>
	<path style="fill:#F95428;" d="M418.023,46.842c13.964,4.743,21.44,19.913,16.697,33.877l-16.904,49.736l-50.563-17.168v-0.011
		l16.904-49.736C388.9,49.575,404.07,42.099,418.023,46.842z"/>
	<path style="fill:#F95428;" d="M289.44,340.411c10.106,0,18.294,8.188,18.294,18.293c0,10.094-8.188,18.282-18.294,18.282
		c-10.094,0-18.282-8.188-18.282-18.282C271.158,348.599,279.346,340.411,289.44,340.411z"/>
</g>
<rect x="365.837" y="113.252" transform="matrix(-0.9469 -0.3215 0.3215 -0.9469 725.0532 363.4618)" style="fill:#C93A27;" width="53.399" height="17.225"/>
<rect x="157.935" y="173.22" style="fill:#2197D8;" width="264.136" height="17.226"/>
<path style="fill:#2BA5F7;" d="M432.412,177.434H147.593c-4.758,0-8.613-3.856-8.613-8.613c0-4.757,3.855-8.613,8.613-8.613h284.819
	c4.758,0,8.613,3.856,8.613,8.613C441.026,173.578,437.169,177.434,432.412,177.434z"/>
<path style="fill:#F95428;" d="M301.555,160.209v115.526c0,9.474-7.671,17.145-17.145,17.145c-4.731,0-9.015-1.918-12.115-5.018
	s-5.018-7.396-5.018-12.127V247.99c0-9.463-7.671-17.134-17.134-17.134c-4.743,0-9.026,1.918-12.127,5.018
	c-3.101,3.101-5.018,7.384-5.018,12.115v53.801c0,9.463-7.671,17.134-17.134,17.134c-4.731,0-9.015-1.918-12.127-5.018
	c-3.101-3.101-5.018-7.384-5.018-12.115V160.209H301.555z"/>
<rect x="198.713" y="177.285" style="fill:#E54728;" width="102.836" height="13.16"/>
<g>
</g>
<g>
</g>
<g>
</g>
<g>
</g>
<g>
</g>
<g>
</g>
<g>
</g>
<g>
</g>
<g>
</g>
<g>
</g>
<g>
</g>
<g>
</g>
<g>
</g>
<g>
</g>
<g>
</g>
</svg>
