<?xml version="1.0" encoding="iso-8859-1"?>
<!-- Generator: Adobe Illustrator 18.0.0, SVG Export Plug-In . SVG Version: 6.00 Build 0)  -->
<!DOCTYPE svg PUBLIC "-//W3C//DTD SVG 1.1//EN" "http://www.w3.org/Graphics/SVG/1.1/DTD/svg11.dtd">
<svg xmlns="http://www.w3.org/2000/svg" xmlns:xlink="http://www.w3.org/1999/xlink" version="1.1" id="Capa_1" x="0px" y="0px" viewBox="0 0 57.999 57.999" style="enable-background:new 0 0 57.999 57.999;" xml:space="preserve" width="512px" height="512px">
<g>
	<path d="M57.125,34.588l-2.85-2.85c-1.128-1.127-3.092-1.127-4.221,0L34.664,47.129l-2.121,7.779l-0.519,0.519   c-0.388,0.388-0.389,1.014-0.006,1.405l-0.005,0.02l0.019-0.005c0.194,0.191,0.446,0.288,0.699,0.288   c0.256,0,0.512-0.098,0.707-0.293l0.52-0.52l7.778-2.121l15.39-15.391C58.29,37.646,58.29,35.752,57.125,34.588z M36.973,47.649   l10.243-10.243l4.243,4.242L41.216,51.892L36.973,47.649z M36.07,49.574l3.22,3.22l-4.428,1.208L36.07,49.574z M55.711,37.396   l-2.839,2.839l-4.243-4.242l2.839-2.839c0.373-0.373,1.022-0.372,1.394-0.001l2.85,2.85C56.096,36.386,56.096,37.012,55.711,37.396   z" fill="#2196f3"/>
	<path d="M44,33.551v-0.319c0.229-0.28,0.47-0.599,0.719-0.951c1.239-1.75,2.232-3.698,2.954-5.799   C49.084,25.834,50,24.44,50,22.865v-4c0-0.963-0.36-1.896-1-2.625V10.92c0.056-0.55,0.276-3.824-2.092-6.525   c-2.054-2.343-5.387-3.53-9.908-3.53s-7.854,1.188-9.908,3.53c-1.435,1.637-1.918,3.481-2.064,4.805   C23.314,8.313,21.294,7.865,19,7.865c-10.389,0-10.994,8.855-11,9v4.579c-0.648,0.706-1,1.521-1,2.33v3.454   c0,1.079,0.483,2.085,1.311,2.765c0.825,3.11,2.854,5.46,3.644,6.285v2.743c0,0.787-0.428,1.509-1.171,1.915l-6.653,4.173   C1.583,46.498,0,49.165,0,52.068v3.797h14h2h13.172l2.807-10.293L44,33.551z M14,53.865H2v-1.797c0-2.17,1.183-4.164,3.089-5.203   l0.053-0.029l0.052-0.032l6.609-4.146c1.349-0.764,2.152-2.118,2.152-3.636v-2.743v-0.803l-0.555-0.58   c-0.558-0.583-2.436-2.698-3.156-5.415l-0.165-0.624L9.58,28.447C9.211,28.144,9,27.7,9,27.228v-3.454   c0-0.298,0.168-0.645,0.474-0.978L10,22.222v-0.779v-4.506c0.078-0.921,0.901-7.073,9-7.073c2.392,0,4.408,0.552,6,1.644v4.73   c-0.648,0.731-1,1.647-1,2.626v4c0,0.304,0.035,0.603,0.101,0.893c0.199,0.867,0.687,1.646,1.393,2.214   c0.001,0.001,0.002,0.002,0.003,0.003c0.006,0.023,0.014,0.043,0.019,0.066c0.055,0.212,0.116,0.432,0.192,0.686l0.074,0.239   c0.011,0.036,0.024,0.067,0.035,0.103c0.063,0.197,0.129,0.387,0.197,0.578c0.031,0.088,0.06,0.183,0.092,0.269   c0.06,0.162,0.116,0.303,0.173,0.443c0.048,0.12,0.096,0.237,0.146,0.354c0.037,0.088,0.075,0.18,0.113,0.266l0.004-0.002   c0.018,0.042,0.037,0.083,0.055,0.125l-0.004,0.002c0.024,0.055,0.05,0.104,0.075,0.159c0.098,0.216,0.195,0.425,0.296,0.627   c0.016,0.033,0.032,0.07,0.048,0.103c0.026,0.052,0.053,0.096,0.079,0.147c0.157,0.306,0.311,0.594,0.465,0.864   c0.017,0.03,0.033,0.058,0.05,0.087c0.575,0.998,1.102,1.742,1.392,2.122L29,36.52c0,0.242-0.033,0.479-0.096,0.706   c-0.188,0.68-0.644,1.267-1.282,1.615l-8.921,4.866c-0.247,0.135-0.474,0.294-0.705,0.449c-0.108,0.072-0.225,0.133-0.329,0.21   c-0.018,0.013-0.033,0.03-0.051,0.043C15.361,46.096,14,48.758,14,51.626V53.865z" fill="#2196f3"/>
</g>
<g>
</g>
<g>
</g>
<g>
</g>
<g>
</g>
<g>
</g>
<g>
</g>
<g>
</g>
<g>
</g>
<g>
</g>
<g>
</g>
<g>
</g>
<g>
</g>
<g>
</g>
<g>
</g>
<g>
</g>
</svg>
